<svg xmlns="http://www.w3.org/2000/svg" data-name="Layer 1" viewBox="0 0 100 125" x="0px" y="0px"><path d="M77.6500244,16.9660034c-6.8800049,0-12.5360107,5.6569824-12.5360107,12.5360107,0,6.9559937,5.6569824,12.5359497,12.5360107,12.5359497,6.8789673,0,12.5360107-5.6559448,12.5360107-12.5359497s-5.6560059-12.5360107-12.5360107-12.5360107Zm7.2792358,17.6690063c-.1571045,.6737671-.5700684,1.0911255-1.2443237,1.2467041h-11.0662231c-.0551758-.0150757-.1106567-.0294189-.1655273-.0454712-.6322632-.1848755-1.086731-.7716064-1.0871582-1.4265137-.0024414-3.5436401-.0015259-7.0872803-.0004883-10.6309204,.000061-.2806396,.0817871-.5396729,.2325439-.776123,.2467041-.3869019,.6050415-.6074219,1.0471191-.7022705h9.2924194c.9972534,.9991455,1.9944458,1.998291,2.9916382,2.9974365v9.3371582Z"/><path d="M80.2001953,23.8227539c-1.1862793-.0001221-2.3726196-.000061-3.5588989-.000061-1.1818848,0-2.3638306-.000061-3.5457153,.000061q-.2016602,0-.2018433,.2075806c-.000061,.8616333-.0001221,1.7232666,.000061,2.5848999,.000061,.1875,.0048828,.1929321,.1932373,.1929321,2.3682251,.0002441,4.7364502,.0002441,7.1046143,.000061,.1990356-.000061,.2024536-.0036621,.2025146-.1976929,.0002441-.8660889,.0002441-1.7321167,0-2.5982056-.000061-.189209-.0006714-.1895752-.1939697-.1895752Z"/><path d="M78.180481,29.8693237c-1.291687-.0025024-2.2687378,.9621582-2.2696533,2.2408447-.0009766,1.2684937,.9736328,2.2489014,2.2371216,2.2504272,1.2698975,.0015259,2.2442627-.9691162,2.2461548-2.2375488,.0018311-1.2722168-.9598389-2.2513428-2.213623-2.2537231Z"/><path d="M43.4000015,72.5c-4.0999985,0-7.4000015,3.3000031-7.4000015,7.4000015s3.2999992,7.4000015,7.4000015,7.4000015,7.4000015-3.3000031,7.4000015-7.4000015c-.0000038-4.0999985-3.3000031-7.4000015-7.4000015-7.4000015Zm0,10c-1.5,0-2.7000008-1.1999969-2.7000008-2.6999969s1.2000008-2.6999969,2.7000008-2.6999969,2.7000008,1.1999969,2.7000008,2.6999969c-.0000038,1.5-1.2000008,2.6999969-2.7000008,2.6999969Z"/><path d="M69.2380066,72.5c-4.0999985,0-7.4000015,3.3000031-7.4000015,7.4000015s3.3000031,7.4000015,7.4000015,7.4000015,7.4000015-3.3000031,7.4000015-7.4000015-3.3000031-7.4000015-7.4000015-7.4000015Zm0,10c-1.5,0-2.6999969-1.1999969-2.6999969-2.6999969s1.1999969-2.6999969,2.6999969-2.6999969,2.6999969,1.1999969,2.6999969,2.6999969c.0000076,1.5-1.1999969,2.6999969-2.6999969,2.6999969Z"/><path d="M96.7172852,29.5019531c0-10.5136719-8.5537109-19.0673828-19.0673828-19.0673828-9.1763916,0-16.8566895,6.517334-18.6627808,15.1654053H23.5999756l-3.1999512-9.0999756c-.7000122-2.2999878-2.9000244-3.9000244-5.3000488-3.9000244H6.7999878c-1.2999878,0-2.3999634,.9000244-2.5,2.1000366-.0999756,1.3999634,1,2.5999756,2.2999878,2.5999756H15c.4000244,0,.7000122,.2000122,.7999878,.6000366l16.7000122,48.0999756c.7000122,2.2999878,2.9000244,3.9000244,5.2999878,3.9000244h40.7999878c1.3000488,0,2.4000244-.9000244,2.5-2.1000366,.1000366-1.3999634-1-2.5999756-2.2999878-2.5999756H37.7999878c-.3999634,0-.7000122-.2000122-.7999878-.6000366l-2.5999756-8.5999756v-.0999756h46.3999634c1.5,0,2.8000488-.9000244,3.2000122-2.3000488l2.4866943-7.2175293c6.0734863-3.1925049,10.2305908-9.5559692,10.2305908-16.8804932ZM27.7000122,37.5999756l-2.6000366-7.1999512c-.0999756-.2000122,.1000366-.4000244,.3000488-.4000244h14.2999878c1.0999756-.2000122,1.8999634,.5,2.0999756,1.4000244l1.6000366,7.0999756c0,.2000122-.1000366,.4000244-.3000488,.4000244h-13.5c-.7999878,0-1.5999756-.5-1.8999634-1.3000488Zm6.5999756,14.1000366c-.7999878,.0999756-1.5999756-.5-1.8999634-1.2999878l-2.6000366-7.2000122c-.0999756-.2000122,.1000366-.4000244,.2999878-.4000244h12.7000122c.9000244,0,1.7000122,.6000366,1.9000244,1.5l1.7000122,7.4000244h-12.1000366Zm13-14.2999878l-1.5999756-6.9000244c0-.2000122,.0999756-.4000244,.2999878-.4000244h12.612793c.0997314,3.1923828,.9790649,6.1868896,2.4672241,8.8000488h-11.8800049c-.9000244,0-1.7000122-.6000366-1.9000244-1.5Zm14.4000244,14h-9.5999756c-.9000244,.0999756-1.7000122-.5-1.9000244-1.4000244l-1.6000366-6.7999878c0-.2000122,.1000366-.4000244,.3000488-.4000244h15.1115112c.2327271,.2386475,.4787598,.4625244,.7236328,.6887817l-1.0351562,6.2112427c-.2000122,1-1,1.7000122-2,1.7000122Zm19.0999756-1c-.2999878,.7999878-1.0999756,1.3999634-1.8999634,1.3999634h-11.4000244l.864624-5.6595459c2.7505493,1.5411987,5.9144287,2.428894,9.2852783,2.428894,1.3511963,0,2.6682129-.1459961,3.9406738-.4145508l-.7905884,2.2452393Zm-3.1500854-2.8306885c-9.9624023,0-18.0673828-8.1049805-18.0673828-18.0673828s8.1049805-18.0673828,18.0673828-18.0673828,18.0673828,8.1049805,18.0673828,18.0673828-8.1049805,18.0673828-18.0673828,18.0673828Z"/><text x="0" y="115" fill="#000000" font-size="5px" font-weight="bold" font-family="'Helvetica Neue', Helvetica, Arial-Unicode, Arial, Sans-serif">Created by Kristina Margaryan</text><text x="0" y="120" fill="#000000" font-size="5px" font-weight="bold" font-family="'Helvetica Neue', Helvetica, Arial-Unicode, Arial, Sans-serif">from the Noun Project</text></svg>